<?xml version="1.0" standalone="no"?>
<!DOCTYPE svg PUBLIC "-//W3C//DTD SVG 20010904//EN"
 "http://www.w3.org/TR/2001/REC-SVG-20010904/DTD/svg10.dtd">
<svg version="1.0" xmlns="http://www.w3.org/2000/svg"
 width="900.000000pt" height="900.000000pt" viewBox="0 0 900.000000 900.000000"
 preserveAspectRatio="xMidYMid meet">

<g transform="translate(0.000000,900.000000) scale(0.100000,-0.100000)"
fill="#000000" stroke="none">
<path d="M4414 8139 c-17 -5 -45 -26 -62 -48 l-32 -40 0 -291 0 -291 51 -50
c47 -46 53 -49 103 -49 46 0 58 5 94 36 75 64 75 62 70 369 l-5 272 -34 42
c-46 56 -108 73 -185 50z"/>
<path d="M2399 7600 c-58 -30 -89 -80 -89 -140 0 -37 6 -59 20 -77 11 -14 20
-31 20 -38 0 -7 14 -29 30 -50 17 -21 30 -45 30 -55 0 -9 9 -25 20 -35 11 -10
20 -26 20 -35 0 -10 12 -33 28 -53 33 -42 63 -93 77 -128 5 -15 25 -39 44 -54
39 -34 122 -45 172 -24 40 16 89 91 89 135 0 38 -30 114 -53 132 -9 8 -21 30
-28 49 -11 33 -33 72 -75 132 -10 13 -33 54 -52 90 -47 89 -80 129 -124 152
-46 24 -83 24 -129 -1z"/>
<path d="M6422 7601 c-39 -20 -86 -76 -96 -114 -3 -15 -16 -35 -27 -45 -11 -9
-36 -50 -56 -90 -19 -40 -40 -75 -45 -78 -5 -4 -18 -26 -28 -50 -11 -24 -24
-44 -29 -44 -6 0 -16 -19 -22 -42 -7 -24 -16 -47 -21 -52 -24 -29 12 -121 63
-158 38 -29 90 -37 134 -23 49 17 76 44 120 118 20 34 40 69 46 77 5 8 16 29
25 45 9 17 27 42 40 57 12 15 25 41 29 57 3 16 13 35 21 42 8 6 14 17 14 23 0
7 11 27 24 44 27 38 40 100 27 135 -11 29 -68 91 -98 106 -30 15 -82 12 -121
-8z"/>
<path d="M4305 7099 c-322 -26 -381 -32 -398 -41 -11 -5 -59 -16 -107 -24 -48
-8 -113 -23 -145 -34 -32 -11 -65 -20 -74 -20 -9 0 -33 -9 -54 -20 -21 -11
-59 -23 -85 -27 -26 -3 -56 -12 -68 -20 -11 -7 -43 -20 -71 -28 -28 -8 -56
-22 -62 -29 -7 -8 -27 -18 -44 -22 -18 -3 -48 -15 -67 -25 -19 -10 -48 -25
-65 -32 -57 -28 -107 -56 -124 -70 -9 -8 -27 -18 -41 -22 -14 -4 -33 -14 -42
-22 -9 -8 -30 -22 -46 -31 -130 -75 -253 -170 -485 -377 -58 -51 -196 -198
-247 -261 -9 -10 -40 -49 -70 -85 -30 -37 -66 -84 -80 -104 -14 -20 -37 -51
-51 -68 -24 -30 -41 -57 -70 -117 -7 -14 -21 -34 -30 -45 -23 -27 -129 -231
-129 -249 0 -8 -11 -28 -25 -44 -14 -17 -25 -40 -25 -53 0 -13 -9 -38 -19 -56
-11 -17 -23 -49 -27 -70 -4 -21 -17 -54 -30 -73 -12 -19 -25 -55 -29 -80 -4
-25 -13 -56 -20 -70 -7 -14 -16 -50 -20 -80 -4 -30 -15 -73 -25 -95 -10 -23
-26 -90 -34 -150 -9 -61 -23 -132 -31 -159 -22 -72 -22 -760 0 -832 8 -27 22
-101 31 -164 9 -63 24 -133 34 -155 10 -22 21 -62 24 -88 4 -26 13 -62 21 -80
7 -18 16 -52 20 -77 4 -25 17 -61 30 -81 13 -20 27 -54 31 -75 4 -21 15 -52
26 -69 10 -16 18 -40 18 -51 0 -12 9 -33 20 -47 12 -14 26 -41 32 -59 6 -18
19 -44 30 -57 10 -13 18 -31 18 -41 0 -10 9 -29 20 -43 11 -14 20 -30 20 -36
0 -6 13 -25 29 -43 15 -18 32 -44 36 -58 4 -14 15 -34 24 -45 10 -11 26 -33
37 -49 10 -16 26 -39 34 -50 8 -12 24 -37 35 -56 11 -19 41 -57 66 -85 25 -27
50 -58 55 -68 33 -60 354 -383 438 -440 18 -12 58 -41 87 -64 113 -89 252
-183 270 -183 4 0 24 -14 42 -30 19 -17 38 -30 43 -30 12 0 136 -61 165 -81
24 -17 45 -26 152 -64 23 -9 56 -22 72 -29 70 -32 109 -46 127 -46 17 0 19 5
15 33 -10 73 -49 256 -66 317 -10 36 -24 85 -31 110 -39 149 -50 183 -63 203
-7 12 -22 46 -31 74 -10 29 -21 55 -26 58 -5 3 -12 25 -16 50 -3 25 -17 57
-30 72 -13 15 -24 35 -24 43 0 8 -11 33 -25 55 -13 22 -25 50 -25 61 0 12 -6
27 -14 33 -8 6 -20 26 -27 44 -6 18 -22 46 -34 62 -11 17 -38 65 -58 107 -21
43 -41 78 -46 78 -5 0 -16 17 -26 38 -9 20 -26 53 -38 72 -12 20 -31 50 -42
69 -11 18 -28 44 -38 57 -10 13 -32 50 -49 82 -17 31 -39 67 -50 78 -20 22
-44 62 -71 120 -8 17 -26 42 -41 57 -14 14 -26 32 -26 40 0 8 -7 21 -16 28 -9
7 -20 23 -24 35 -5 11 -26 47 -47 79 -49 75 -49 74 -69 115 -38 80 -54 109
-62 114 -5 3 -23 36 -41 73 -18 37 -39 79 -47 93 -7 14 -21 41 -30 60 -9 19
-25 51 -35 71 -11 20 -19 43 -19 51 0 8 -11 35 -24 60 -13 25 -27 60 -31 79
-4 19 -16 49 -26 67 -10 18 -19 41 -19 52 0 10 -9 46 -19 81 -11 35 -29 135
-40 221 l-21 157 20 208 c10 114 24 228 29 253 5 25 15 72 21 105 7 33 21 83
31 110 10 28 23 68 28 90 6 22 20 58 31 80 11 21 20 48 20 60 0 11 9 35 20 53
11 18 20 38 20 46 0 7 13 33 30 57 16 24 30 52 30 61 0 9 11 34 25 54 14 20
25 42 25 49 0 6 9 20 21 31 11 10 27 32 35 49 39 80 146 231 246 345 27 30 54
62 62 70 25 29 228 215 244 224 10 5 35 24 58 43 65 52 104 79 181 123 40 23
75 45 78 50 7 11 144 80 159 80 8 0 24 8 37 19 27 21 172 81 197 81 9 0 40 12
67 25 28 14 57 25 64 25 8 0 56 11 105 24 205 55 339 68 641 63 194 -4 274 -9
315 -21 30 -9 70 -16 89 -16 39 0 264 -62 307 -85 16 -8 37 -15 46 -15 27 0
171 -60 194 -81 11 -10 28 -19 36 -19 17 0 142 -63 168 -85 8 -6 29 -19 45
-27 61 -31 82 -44 140 -89 33 -25 67 -50 76 -55 31 -17 284 -246 319 -289 14
-16 40 -46 58 -65 19 -19 40 -47 48 -62 7 -15 22 -33 32 -40 21 -15 82 -98 82
-111 0 -4 15 -26 33 -47 32 -39 68 -97 108 -177 11 -23 27 -47 35 -54 8 -6 14
-17 14 -24 0 -6 11 -33 25 -59 14 -26 25 -52 25 -59 0 -7 14 -39 30 -72 17
-33 30 -65 30 -72 0 -6 9 -27 19 -45 10 -18 22 -55 26 -83 4 -27 13 -61 20
-76 8 -14 21 -66 30 -115 9 -49 22 -109 30 -134 8 -25 19 -130 24 -238 12
-224 0 -439 -29 -512 -10 -25 -21 -65 -25 -90 -4 -25 -15 -60 -26 -78 -10 -18
-22 -52 -26 -75 -3 -23 -14 -55 -24 -72 -9 -16 -20 -41 -24 -54 -4 -12 -18
-39 -31 -58 -13 -20 -24 -46 -24 -58 0 -12 -8 -33 -19 -46 -10 -13 -22 -35
-26 -49 -4 -14 -15 -34 -25 -45 -10 -11 -35 -56 -56 -100 -21 -44 -44 -86 -51
-93 -7 -7 -13 -17 -13 -21 0 -5 -13 -25 -30 -46 -17 -21 -30 -43 -30 -50 0 -7
-19 -41 -42 -75 -53 -76 -83 -125 -102 -167 -9 -17 -20 -34 -26 -38 -12 -7
-80 -109 -80 -120 0 -4 -11 -20 -25 -37 -14 -16 -25 -35 -25 -42 0 -7 -9 -21
-21 -32 -11 -10 -27 -32 -35 -49 -31 -63 -47 -91 -69 -115 -13 -14 -26 -36
-30 -50 -4 -14 -16 -36 -26 -49 -11 -13 -19 -29 -19 -36 0 -7 -13 -29 -30 -50
-16 -21 -30 -43 -30 -50 0 -7 -6 -18 -14 -24 -8 -7 -18 -26 -21 -43 -8 -33
-69 -154 -91 -179 -8 -8 -14 -24 -14 -35 0 -10 -11 -40 -25 -66 -14 -26 -25
-55 -25 -66 0 -10 -11 -33 -24 -51 -13 -18 -27 -48 -31 -68 -3 -20 -15 -52
-26 -72 -10 -20 -19 -49 -19 -66 0 -16 -9 -48 -19 -70 -10 -22 -26 -74 -36
-115 -10 -41 -22 -83 -27 -92 -5 -10 -15 -69 -23 -130 -8 -62 -17 -125 -21
-139 -9 -41 18 -42 105 -4 44 19 88 35 98 35 10 0 32 9 48 20 17 11 37 20 46
20 9 0 34 12 55 26 21 15 52 31 69 37 16 5 37 15 45 22 8 7 26 16 40 20 14 4
34 15 45 25 11 10 34 25 50 35 71 39 120 71 211 137 17 13 44 32 60 42 16 11
38 28 49 38 11 10 40 34 65 54 25 19 68 56 95 82 28 26 63 56 79 66 15 11 33
31 41 45 7 15 34 41 59 60 25 19 46 40 46 46 0 5 20 31 44 56 23 25 58 67 77
95 19 27 43 59 54 71 29 31 68 84 112 154 12 19 29 41 37 50 8 8 23 31 31 50
9 18 29 55 43 81 15 26 42 73 60 104 17 32 36 73 41 91 5 18 19 45 30 59 12
15 21 34 21 43 0 9 11 34 25 56 13 22 25 49 25 59 0 11 8 38 19 60 10 23 24
63 30 90 7 27 20 65 31 85 10 21 24 65 30 100 6 35 15 74 21 87 5 14 13 63 18
108 6 46 17 106 25 132 49 160 46 830 -5 986 -11 32 -19 77 -19 102 0 24 -9
72 -19 107 -11 35 -23 87 -26 114 -4 28 -16 64 -26 81 -10 17 -24 55 -30 85
-6 30 -17 63 -24 74 -7 11 -16 36 -20 55 -4 19 -17 55 -30 80 -12 25 -34 70
-48 100 -80 172 -99 209 -112 220 -8 7 -15 17 -15 23 0 10 -63 117 -100 171
-8 12 -25 38 -37 57 -60 96 -222 288 -363 429 -101 102 -252 239 -279 254 -9
5 -41 30 -72 55 -31 25 -94 69 -139 96 -45 28 -94 59 -108 70 -15 11 -43 28
-62 38 -19 10 -53 28 -75 42 -22 13 -56 31 -75 40 -59 26 -123 56 -173 81 -26
13 -53 24 -61 24 -7 0 -34 11 -60 25 -26 14 -56 25 -67 25 -11 0 -45 9 -77 21
-109 39 -228 72 -307 84 -44 7 -91 17 -105 22 -35 14 -94 21 -330 38 -221 16
-253 16 -405 4z"/>
<path d="M939 6133 c-14 -2 -41 -19 -58 -37 -26 -27 -33 -44 -37 -87 -7 -76
15 -113 96 -166 36 -22 75 -51 88 -62 12 -12 26 -21 29 -21 13 0 138 -64 148
-76 6 -7 42 -29 82 -49 64 -33 78 -37 128 -33 44 4 62 11 86 34 51 49 72 90
65 128 -8 39 -60 116 -80 116 -7 0 -21 9 -32 21 -21 23 -60 46 -156 89 -13 6
-43 24 -68 40 -25 17 -61 37 -80 46 -19 9 -47 25 -61 35 -26 18 -104 30 -150
22z"/>
<path d="M7901 6128 c-19 -5 -46 -18 -59 -29 -14 -10 -29 -19 -34 -19 -5 0
-24 -11 -42 -25 -18 -14 -40 -25 -49 -25 -9 0 -25 -10 -36 -22 -12 -12 -35
-27 -53 -33 -18 -6 -53 -24 -77 -41 -24 -16 -59 -39 -78 -50 -43 -27 -82 -89
-83 -132 0 -41 41 -106 83 -133 43 -27 134 -22 177 9 16 12 36 22 44 22 9 0
31 14 49 30 19 17 41 30 48 30 8 0 25 9 39 20 14 11 30 20 35 20 6 0 29 13 52
28 23 15 67 42 98 61 82 50 95 71 95 150 0 63 -2 69 -32 98 -53 51 -103 63
-177 41z"/>
<path d="M5568 5308 c-13 -13 -46 -48 -74 -78 -29 -30 -349 -352 -712 -714
-364 -363 -659 -663 -657 -667 3 -4 143 -8 312 -8 202 -1 311 -5 320 -13 17
-13 7 -53 -23 -93 -12 -16 -36 -61 -54 -99 -18 -38 -38 -75 -45 -83 -8 -7 -17
-23 -21 -36 -4 -12 -17 -35 -30 -50 -13 -16 -24 -38 -24 -49 0 -12 -8 -30 -17
-41 -19 -20 -31 -43 -101 -181 -23 -47 -47 -88 -53 -92 -6 -3 -19 -25 -30 -48
-10 -22 -23 -48 -29 -56 -5 -8 -16 -31 -25 -50 -8 -19 -28 -55 -45 -80 -16
-25 -34 -56 -40 -70 -5 -14 -16 -36 -25 -50 -8 -14 -22 -41 -31 -60 -9 -19
-22 -42 -30 -50 -20 -23 -74 -127 -74 -144 0 -7 -7 -19 -16 -27 -8 -7 -24 -29
-35 -48 -10 -20 -24 -43 -29 -51 -5 -8 -17 -31 -25 -50 -9 -19 -29 -57 -45
-85 -16 -27 -38 -69 -49 -91 -10 -23 -24 -45 -29 -48 -6 -3 -13 -19 -17 -35
-3 -16 -17 -39 -31 -51 -13 -13 -24 -31 -24 -40 0 -9 -11 -31 -25 -50 -14 -19
-25 -39 -25 -46 0 -6 -14 -29 -31 -50 -31 -40 -63 -104 -55 -112 8 -7 50 27
76 63 27 37 218 261 259 305 14 15 78 83 141 151 63 68 129 138 146 155 17 18
43 49 58 69 16 20 42 51 60 70 17 18 65 70 106 115 41 45 94 101 116 125 23
23 68 73 100 111 32 38 60 71 64 74 3 3 39 43 80 90 41 47 106 119 145 160 38
41 99 108 135 149 97 110 176 199 237 266 30 33 74 83 99 110 25 28 74 83 110
123 36 40 64 77 62 83 -2 6 -126 10 -335 11 -237 0 -337 4 -349 12 -21 16 -10
77 20 114 20 24 37 56 91 172 9 19 29 58 45 85 37 65 96 184 104 212 4 11 13
24 20 26 8 3 20 23 26 44 7 21 18 45 25 53 8 8 17 29 21 45 3 17 14 39 24 50
9 11 31 52 49 90 18 39 39 81 47 95 7 14 21 41 30 60 9 19 25 43 35 53 10 10
19 28 19 41 0 13 9 35 20 49 11 14 20 29 20 35 0 5 14 28 30 51 38 52 53 88
40 96 -6 3 -20 -4 -32 -17z"/>
<path d="M4423 5231 c-52 -10 -140 -96 -174 -170 -50 -109 -33 -200 55 -304
62 -73 123 -101 221 -102 70 0 86 3 126 28 77 45 131 112 159 195 24 72 24 73
7 120 -10 26 -22 61 -26 78 -13 50 -118 141 -179 155 -41 10 -140 10 -189 0z"/>
</g>
</svg>
